<svg width="136" height="16" viewBox="0 0 136 16" fill="none" xmlns="http://www.w3.org/2000/svg">
<path d="M0.878784 15.2868V0.331703H16.2096C17.7629 0.331703 19.0337 1.67766 19.0337 3.32272V12.2957C19.0337 13.9408 17.7629 15.2868 16.2096 15.2868H0.878784ZM6.12355 10.6507H13.789V4.96777H6.12355V10.6507Z" fill="#141420"/>
<path d="M21.4898 15.2868V0.331703H26.8758V15.2868H21.4898Z" fill="#141420"/>
<path d="M32.133 15.2868C30.5798 15.2868 29.3089 13.9408 29.3089 12.2957V10.373H34.5537V11.4198H42.2191V9.53975H32.4154C30.5999 9.53975 29.3291 8.23652 29.3089 6.63419V3.32272C29.3089 1.67766 30.5798 0.331703 32.133 0.331703H44.6398C46.193 0.331703 47.4639 1.67766 47.4639 3.32272V5.24551H42.2191V4.19865H34.5537V6.07872H44.6398C46.1729 6.07872 47.4235 7.38194 47.4639 8.98427V12.2957C47.4639 13.9408 46.193 15.2868 44.6398 15.2868H32.133Z" fill="#141420"/>
<path d="M55.3361 15.2868V4.96777H48.881V0.331703H67.0359V4.96777H60.5808V15.2868H55.3361Z" fill="#141420"/>
<path d="M68.8243 15.2868V0.331703H84.1551C85.7084 0.331703 86.9792 1.67766 86.9792 3.32272V5.99485C86.9792 6.82806 86.6565 7.59718 85.9303 8.13129C86.6161 8.62267 86.9187 9.30633 86.9792 10.0541V15.2868H81.7345V11.3984H74.0691V15.2868H68.8243ZM74.0691 7.25376H81.7345V4.83958H74.0691V7.25376Z" fill="#141420"/>
<path d="M89.5339 15.2868V0.331703H94.9198V15.2868H89.5339Z" fill="#141420"/>
<path d="M100.177 15.2868C98.6238 15.2868 97.3529 13.9408 97.3529 12.2957V3.32272C97.3529 1.67766 98.6238 0.331703 100.177 0.331703H112.684C114.237 0.331703 115.508 1.67766 115.508 3.32272V6.89056H110.263V4.86095H102.598V10.7575H110.263V8.7279H115.508V12.2957C115.508 13.9408 114.237 15.2868 112.684 15.2868H100.177Z" fill="#141420"/>
<path d="M123.498 15.2868V4.96777H117.043V0.331703H135.198V4.96777H128.743V15.2868H123.498Z" fill="#141420"/>
</svg>
